<svg width="800px" height="800px" viewBox="0 0 24 24" fill="none" xmlns="http://www.w3.org/2000/svg">
  <path fill-rule="evenodd" clip-rule="evenodd" d="M12 5c-2.11 0-4.006.927-5.509 2.009C4.98 8.096 3.78 9.4 3.04 10.299c-.82.996-.82 2.406 0 3.402.74.899 1.94 2.203 3.451 3.29C7.994 18.073 9.89 19 12 19s4.006-.927 5.509-2.009c1.511-1.087 2.711-2.391 3.451-3.29.82-.996.82-2.406 0-3.402-.74-.899-1.94-2.203-3.451-3.29C16.006 5.927 14.11 5 12 5zm0 12c-3.314 0-6-2.686-6-6s2.686-6 6-6 6 2.686 6 6-2.686 6-6 6zm0-10a4 4 0 100 8 4 4 0 000-8zm0 2a2 2 0 110 4 2 2 0 010-4z" fill="#5E6F76"/>
</svg>
