<?xml version="1.0" encoding="iso-8859-1"?>
<!-- Uploaded to: SVG Repo, www.svgrepo.com, Generator: SVG Repo Mixer Tools -->
<!DOCTYPE svg PUBLIC "-//W3C//DTD SVG 1.1//EN" "http://www.w3.org/Graphics/SVG/1.1/DTD/svg11.dtd">
<svg class="flex w-6 h-6 shrink-0" style="fill: #5E6F76; opacity: 0.4;" xmlns="http://www.w3.org/2000/svg" viewBox="0 0 47 47">
    <g>
        <path d="M23.5,0C10.522,0,0,10.522,0,23.5C0,36.479,10.522,47,23.5,47C36.479,47,47,36.479,47,23.5C47,10.522,36.479,0,23.5,0z
             M30.07,34.686L30.07,34.686c0,2.53-2.941,4.58-6.573,4.58c-3.631,0-6.577-2.05-6.577-4.58c0-0.494,3.648-14.979,3.648-14.979
            c-2.024-1.06-3.418-3.161-3.418-5.609c0-3.515,2.838-6.362,6.361-6.362c3.514,0,6.35,2.848,6.35,6.362
            c0,2.448-1.391,4.55-3.416,5.609c0,0,3.598,14.455,3.611,14.88l0.022,0.099H30.07z"/>
    </g>
</svg>