<?xml version="1.0" ?>
<!-- Uploaded to: SVG Repo, www.svgrepo.com, Generator: SVG Repo Mixer Tools -->
<svg width="800px" height="800px" viewBox="0 0 512 512" id="Layer_1" version="1.1" xml:space="preserve" xmlns="http://www.w3.org/2000/svg" xmlns:xlink="http://www.w3.org/1999/xlink">
<style type="text/css">
	.st0{fill:#333333;}
</style>
<g>
<path class="st0" d="M108.3,338.5c-29,0-52.5,23.5-52.5,52.5c0,29,23.5,52.5,52.5,52.5c29,0,52.5-23.5,52.5-52.5   C160.8,362,137.3,338.5,108.3,338.5z"/>
<path class="st0" d="M408.2,293.1c-4.3-0.6-8.7-0.9-13.2-0.9c-9.9,0-19.4,1.4-28.3,4.1c-15.2,4.6-28.9,12.7-40.1,23.5   c-18.7,18-30.4,43.2-30.4,71.1h32.3c0-22.8,11.4-43.7,30.6-56c10.7-6.9,23.1-10.5,35.9-10.5c3.8,0,7.6,0.3,11.3,1   c32,5.5,55.2,33,55.2,65.5h32.3C493.7,341,456.4,299.6,408.2,293.1z"/>
<path class="st0" d="M403.9,339.3c-2.9-0.5-5.9-0.8-8.9-0.8c-10.4,0-20.2,3.1-28.3,8.3c-14.5,9.3-24.2,25.6-24.2,44.2   c0,29,23.5,52.5,52.5,52.5c29,0,52.5-23.5,52.5-52.5C447.5,365,428.6,343.5,403.9,339.3z"/>
<path class="st0" d="M350.5,145.4c6.9,4.8,15.3,7.7,24.3,7.7c9.2,0,17.8-3,24.7-8c4.6-3.3,8.5-7.5,11.4-12.4   c0.2-0.4,0.5-0.8,0.7-1.2c0.7-1.2,1.3-2.5,1.9-3.8c0.2-0.4,0.4-0.8,0.5-1.3c0-0.1,0-0.1,0.1-0.1c0.1-0.4,0.3-0.7,0.4-1.1   c0.5-1.3,0.9-2.5,1.2-3.8c0.1-0.3,0.1-0.5,0.2-0.8c0.2-0.7,0.3-1.4,0.5-2.2c0-0.2,0.1-0.5,0.1-0.7c0-0.2,0.1-0.4,0.1-0.6   c0-0.3,0.1-0.5,0.1-0.8c0.1-0.7,0.2-1.3,0.2-2c0-0.1,0-0.2,0-0.4c0-0.2,0-0.4,0-0.7c0-0.4,0-0.7,0.1-1.1c0-0.5,0-1,0-1.5s0-1,0-1.5   c0-0.4,0-0.7-0.1-1.1c0-0.2,0-0.4,0-0.7c0-0.1,0-0.2,0-0.4c-0.1-0.7-0.1-1.3-0.2-2c0-0.3-0.1-0.5-0.1-0.8c0-0.2-0.1-0.4-0.1-0.6   c0-0.3-0.1-0.5-0.1-0.8c-0.1-0.7-0.3-1.4-0.5-2.2c-0.1-0.2-0.1-0.5-0.2-0.7c-0.1-0.3-0.1-0.6-0.2-0.8c0-0.1,0-0.2-0.1-0.3   c-0.1-0.4-0.3-0.9-0.4-1.3c0,0,0,0,0,0c-0.2-0.4-0.3-0.9-0.5-1.4c-0.2-0.4-0.3-0.9-0.5-1.3c-0.2-0.4-0.4-0.9-0.5-1.3   c-0.6-1.3-1.2-2.6-1.9-3.8c-0.2-0.4-0.5-0.8-0.7-1.2c-7.4-12.2-20.8-20.3-36.1-20.3c-17.1,0-31.8,10.1-38.5,24.8   c-2.4,5.3-3.8,11.3-3.8,17.5s1.4,12.2,3.8,17.5C339.4,135.2,344.3,141.1,350.5,145.4z"/>
<path class="st0" d="M424.5,137.1L424.5,137.1c6.9,2.2,14-2.9,14-10.2V94.6c0-7.3-7.1-12.4-14-10.2l0,0c4.3,8.1,6.6,17.1,6.6,26.3   S428.8,129,424.5,137.1z"/>
<path class="st0" d="M198.3,192.9c0-10-8.1-18.1-18.1-18.1H84.7c-10,0-18.1,8.1-18.1,18.1v19.6h131.7V192.9z"/>
<path class="st0" d="M316.9,309.8c12.9-12.4,28.7-21.7,45.8-26.8c10.4-3.1,21.3-4.7,32.4-4.7c4.6,0,9.3,0.3,13.8,0.9   c1.3-37.5-0.8-77-7-119c-8.3,4.6-17.5,6.9-27.1,6.9c-8.6,0-16.9-1.9-24.5-5.6c-0.4,13.8-1.2,27.5-2.5,41.2   c-4.8,50.6-47.3,89.2-98.1,89.2h-51.4v-65.4H71.6c-18.5,18.3-33,40.6-42.2,65.4c-7.2,19.5-11.2,40.5-11.2,62.5V391h23.5   c0-36.7,29.8-66.5,66.5-66.5s66.5,29.8,66.5,66.5h107.4C282.2,360.1,294.5,331.2,316.9,309.8z M137,308H99c-3.9,0-7-3.1-7-7   s3.1-7,7-7h38c3.9,0,7,3.1,7,7S140.9,308,137,308z M137,282H99c-3.9,0-7-3.1-7-7s3.1-7,7-7h38c3.9,0,7,3.1,7,7S140.9,282,137,282z"/>
<path class="st0" d="M285.7,133.1c4,0,7.7-0.8,11.1-2.1c8.2-1.1,16.2-2.2,24.3-3.2c-1.7-5.4-2.6-11.1-2.6-17   c0-5.5,0.8-10.9,2.3-16.1c-8.2,0.3-16.4-1-24-4.1c-3.4-1.4-7.1-2.1-11.1-2.1c-14.4,0-26,10-26,22.3   C259.7,123.1,271.3,133.1,285.7,133.1z"/>
</g>
</svg>